<svg xmlns="http://www.w3.org/2000/svg" version="1.1" xmlns:xlink="http://www.w3.org/1999/xlink"
    width="512" height="512" x="0" y="0" viewBox="0 0 64 64"
    style="enable-background:new 0 0 512 512" xml:space="preserve" class=""><g><path fill="#f96d60" d="M43.8 35.67c1.66 3.53-.95 7.18-4.14 10.03C36.17 48.83 32 51 32 51s-4.17-2.17-7.66-5.3c-3.19-2.85-5.8-6.5-4.14-10.03.19-.41.44-.82.76-1.23C25.79 28.23 32 35.82 32 35.82s6.21-7.59 11.04-1.38c.32.41.57.82.76 1.23z" opacity="1" data-original="#f96d60" class=""></path><path fill="#f34c39" d="M39.66 45.7C36.17 48.83 32 51 32 51s-3.88-2.02-7.29-4.98C26.58 47.26 28 48 28 48s4.17-2.17 7.66-5.3c3.19-2.85 5.8-6.5 4.14-10.03-.09-.2-.2-.4-.33-.6 1.2.2 2.43.9 3.57 2.37.32.41.57.82.76 1.23 1.66 3.53-.95 7.18-4.14 10.03z" opacity="1" data-original="#f34c39"></path><path fill="#ffcac4" d="m59 28.81-15.2 6.86c-.19-.41-.44-.82-.76-1.23C38.21 28.23 32 35.82 32 35.82s-6.21-7.59-11.04-1.38c-.32.41-.57.82-.76 1.23L5 28.81V8c0-.55.45-1 1-1h52c.55 0 1 .45 1 1z" opacity="1" data-original="#ffcac4"></path><g fill="#f96d60"><path d="M59 8v20.81l-15.2 6.86c-.19-.41-.44-.82-.76-1.23C38.21 28.23 32 35.82 32 35.82s-6.21-7.59-11.04-1.38c-.32.41-.57.82-.76 1.23L5 28.81v-2.68L18 29h29.959a8.636 8.636 0 0 0 3.866-.913l2.316-1.158A3.361 3.361 0 0 0 56 23.922V7h2c.55 0 1 .45 1 1zM39.15 7h-14.3L32 1zM63 27l-4 1.81v-5.16zM5 23.65v5.16L1 27z" fill="#f96d60" opacity="1" data-original="#f96d60" class=""></path></g><path fill="#ffcac4" d="M63 60v1c0 1.1-.9 2-2 2H3c-1.1 0-2-.9-2-2v-1l23.34-14.3C27.83 48.83 32 51 32 51s4.17-2.17 7.66-5.3z" opacity="1" data-original="#ffcac4"></path><path fill="#ffcac4" d="M63 27v33L39.66 45.7c3.19-2.85 5.8-6.5 4.14-10.03L59 28.81z" opacity="1" data-original="#ffcac4"></path><path fill="#f96d60" d="M49.37 33.156 43.8 35.67c1.66 3.53-.95 7.18-4.14 10.03L63 60v-5.569c-3.32-1.188-6.742-2.395-10-4.431-5.228-3.486-6.656-11.525-3.63-16.844z" opacity="1" data-original="#f96d60" class=""></path><path fill="#ffcac4" d="M24.34 45.7 1 60V27l4 1.81 15.2 6.86c-1.66 3.53.95 7.18 4.14 10.03z" opacity="1" data-original="#ffcac4"></path><path fill="#f96d60" d="M24.34 45.7c-3.19-2.85-5.8-6.5-4.14-10.03L8.48 30.38C12.273 35.284 16.438 40.312 14 46c-2.309 5.772-7.284 7.544-13 8.204V60zM9.22 9.428H7.867a.778.778 0 0 0-.778.778v1.489c0 .711.875 1.05 1.354.523l1.353-1.489a.778.778 0 0 0-.576-1.301z" opacity="1" data-original="#f96d60" class=""></path><ellipse cx="23.09" cy="36.361" fill="#ffcac4" rx="1.5" ry="1.067" transform="rotate(-71.28 23.104 36.37)" opacity="1" data-original="#ffcac4"></ellipse><path fill="#ffcac4" d="m0 24.74.12.32-.12-.03zM6.534 32H4.29A1.29 1.29 0 0 0 3 33.29v2.468c0 1.179 1.451 1.74 2.244.868l2.244-2.468c.753-.829.165-2.158-.954-2.158z" opacity="1" data-original="#ffcac4"></path><g fill="#7a140c"><path d="M38 44a1 1 0 0 0 .707-.293c.02-.02.483-.484 1.061-1.178a1 1 0 0 0-1.536-1.281c-.517.62-.935 1.041-.939 1.045A1 1 0 0 0 38 44zM38.438 36.899c.422-.199 1.197-.392 1.668.549.111.222.052.65-.163 1.174a1 1 0 1 0 1.852.756c.452-1.104.485-2.055.1-2.826-1.062-2.124-3.178-2.028-4.342-1.447a.995.995 0 0 0-.447 1.329c.24.494.837.699 1.332.465z" fill="#7a140c" opacity="1" data-original="#7a140c"></path><path d="M60 23.183V8c0-1.103-.897-2-2-2H39.514L32.643.234a1 1 0 0 0-1.285 0L24.486 6H6c-1.103 0-2 .897-2 2v15.183l-3.642 3.05A1 1 0 0 0 0 27v34c0 1.654 1.346 3 3 3h58c1.654 0 3-1.346 3-3V27a1 1 0 0 0-.358-.767zM18.94 36.199a6.391 6.391 0 0 0-.095 3.198c.481 2.202 2.015 4.302 3.858 6.133L2 58.215V28.549zm1.859 2.769c-.309-1.413.003-2.692.952-3.912 1.062-1.365 2.215-2.038 3.526-2.056h.055c3.016 0 5.866 3.422 5.895 3.457.38.462 1.166.462 1.546 0 .029-.035 2.878-3.457 5.895-3.457h.055c1.311.018 2.464.69 3.526 2.056.949 1.22 1.26 2.5.952 3.912-1.083 4.964-9.169 9.758-11.201 10.893-2.032-1.135-10.118-5.929-11.201-10.893zm24.355.428a6.391 6.391 0 0 0-.095-3.198L62 28.549v29.666L41.296 45.53c1.843-1.831 3.377-3.932 3.858-6.134zm15.983-12.652L60 27.257v-1.465zM32 2.306 36.402 6h-8.805zM58 8v20.16l-13.781 6.223a8.239 8.239 0 0 0-.391-.555c-1.441-1.853-3.152-2.804-5.086-2.828h-.072c-2.889 0-5.44 2.126-6.669 3.352C30.77 33.126 28.219 31 25.331 31h-.072c-1.934.024-3.645.976-5.086 2.828a7.993 7.993 0 0 0-.391.555L6 28.16V8zM4 27.257l-1.137-.513L4 25.792zM61 62H3c-.551 0-1-.449-1-1v-.44l22.235-13.623c3.356 2.872 7.04 4.813 7.304 4.95a1 1 0 0 0 .922 0c.264-.137 3.948-2.078 7.304-4.95L62 60.56V61c0 .551-.449 1-1 1z" fill="#7a140c" opacity="1" data-original="#7a140c"></path><path d="M11 14h3a1 1 0 0 0 0-2h-3a1 1 0 0 0 0 2zM18 14h35a1 1 0 0 0 0-2H18a1 1 0 0 0 0 2zM11 18h16a1 1 0 0 0 0-2H11a1 1 0 0 0 0 2zM53 16H31a1 1 0 0 0 0 2h22a1 1 0 0 0 0-2zM11 22h12a1 1 0 0 0 0-2H11a1 1 0 0 0 0 2zM27 20a1 1 0 0 0 0 2h6a1 1 0 0 0 0-2zM53 20H42a1 1 0 0 0 0 2h11a1 1 0 0 0 0-2zM11 26h42a1 1 0 0 0 0-2H11a1 1 0 0 0 0 2zM37 20a1 1 0 0 0 0 2h1a1 1 0 0 0 0-2z" fill="#7a140c" opacity="1" data-original="#7a140c"></path></g></g></svg>