<svg xmlns="http://www.w3.org/2000/svg" version="1.1" xmlns:xlink="http://www.w3.org/1999/xlink"
    width="512" height="512" x="0" y="0" viewBox="0 0 64 64"
    style="enable-background:new 0 0 512 512" xml:space="preserve" class=""><g><path fill="#f96d60" d="M43.8 26.67c1.66 3.53-.95 7.18-4.14 10.03C36.17 39.83 32 42 32 42s-4.17-2.17-7.66-5.3c-3.19-2.85-5.8-6.5-4.14-10.03.19-.41.44-.82.76-1.23C25.79 19.23 32 26.82 32 26.82s6.21-7.59 11.04-1.38c.32.41.57.82.76 1.23z" opacity="1" data-original="#f96d60"></path><path fill="#f34c39" d="M39.66 36.7C36.17 39.83 32 42 32 42s-3.88-2.02-7.29-4.98C26.58 38.26 28 39 28 39s4.17-2.17 7.66-5.3c3.19-2.85 5.8-6.5 4.14-10.03-.09-.2-.2-.4-.33-.6 1.2.2 2.43.9 3.57 2.37.32.41.57.82.76 1.23 1.66 3.53-.95 7.18-4.14 10.03z" opacity="1" data-original="#f34c39"></path><g fill="#ffcac4"><path d="M63 17v1l-19.2 8.67c-.19-.41-.44-.82-.76-1.23C38.21 19.23 32 26.82 32 26.82s-6.21-7.59-11.04-1.38c-.32.41-.57.82-.76 1.23L1 18v-1c0-1.1.9-2 2-2h58c1.1 0 2 .9 2 2zM63 51v1c0 1.1-.9 2-2 2H3c-1.1 0-2-.9-2-2v-1l23.34-14.3C27.83 39.83 32 42 32 42s4.17-2.17 7.66-5.3z" fill="#ffcac4" opacity="1" data-original="#ffcac4" class=""></path><path d="M63 18v33L39.66 36.7c3.19-2.85 5.8-6.5 4.14-10.03z" fill="#ffcac4" opacity="1" data-original="#ffcac4" class=""></path></g><path fill="#f96d60" d="M49.513 24.09 43.8 26.67c1.66 3.53-.95 7.18-4.14 10.03L63 51v-8.162c-10.01-4.075-20.691-7.587-13.487-18.748z" opacity="1" data-original="#f96d60"></path><path fill="#ffcac4" d="M24.34 36.7 1 51V18l19.2 8.67c-1.66 3.53.95 7.18 4.14 10.03z" opacity="1" data-original="#ffcac4" class=""></path><path fill="#f96d60" d="M24.34 36.7c-3.19-2.85-5.8-6.5-4.14-10.03l-9.974-4.504C16.088 28.332 16.506 38.247 9 42c-2.574 1.287-5.252 2.26-8 3.026V51z" opacity="1" data-original="#f96d60"></path><path fill="#ffcac4" d="M10.226 22.166 1 18v27.026C3.748 44.26 6.426 43.287 9 42c7.506-3.753 7.088-13.668 1.226-19.834z" opacity="1" data-original="#ffcac4" class=""></path><path fill="#ffcac4" d="M6.708 23.733H4.464a1.29 1.29 0 0 0-1.29 1.29v2.468c0 1.179 1.451 1.74 2.244.868l2.244-2.468c.753-.829.165-2.158-.954-2.158z" opacity="1" data-original="#ffcac4" class=""></path><ellipse cx="24.09" cy="27.361" fill="#ffcac4" rx="1.5" ry="1.067" transform="rotate(-71.28 24.103 27.367)" opacity="1" data-original="#ffcac4" class=""></ellipse><g fill="#7a140c"><path d="M61 14H3c-1.654 0-3 1.346-3 3v35c0 1.654 1.346 3 3 3h58c1.654 0 3-1.346 3-3V17c0-1.654-1.346-3-3-3zM18.846 30.396c.481 2.202 2.015 4.302 3.858 6.133L2 49.215V19.549l16.94 7.649a6.38 6.38 0 0 0-.094 3.198zm1.953-.428c-.309-1.413.003-2.692.952-3.912 1.062-1.365 2.215-2.038 3.526-2.056h.055c3.016 0 5.866 3.422 5.895 3.457.38.462 1.166.462 1.546 0 .029-.035 2.917-3.481 5.95-3.456 1.311.018 2.464.69 3.526 2.056.949 1.22 1.26 2.5.952 3.912-1.083 4.963-9.169 9.757-11.201 10.892-2.032-1.135-10.118-5.929-11.201-10.893zm24.355.428a6.391 6.391 0 0 0-.095-3.198L62 19.549v29.666L41.296 36.53c1.843-1.831 3.377-3.932 3.858-6.134zM3 16h58c.551 0 1 .449 1 1v.354l-17.781 8.029a8.239 8.239 0 0 0-.391-.555c-1.441-1.853-3.152-2.804-5.086-2.828h-.072c-2.889 0-5.44 2.126-6.669 3.352-1.24-1.235-3.821-3.344-6.742-3.351-1.934.024-3.645.976-5.086 2.828a7.993 7.993 0 0 0-.391.555L2 17.354V17c0-.551.449-1 1-1zm58 37H3c-.551 0-1-.449-1-1v-.44l22.235-13.623c3.356 2.872 7.04 4.813 7.304 4.95a1 1 0 0 0 .922 0c.264-.137 3.948-2.078 7.304-4.95L62 51.56V52c0 .551-.449 1-1 1z" fill="#7a140c" opacity="1" data-original="#7a140c"></path><path d="M38 35a1 1 0 0 0 .707-.293c.02-.02.483-.484 1.061-1.178a1 1 0 0 0-1.536-1.281c-.517.62-.935 1.041-.939 1.045A1 1 0 0 0 38 35zM38.438 27.899c.422-.199 1.198-.392 1.668.549.111.222.052.65-.163 1.174a1 1 0 1 0 1.852.756c.452-1.104.485-2.055.1-2.826-1.062-2.124-3.178-2.028-4.342-1.447a.995.995 0 0 0-.447 1.329c.24.494.837.699 1.332.465z" fill="#7a140c" opacity="1" data-original="#7a140c"></path></g></g></svg>